<?xml version="1.0" encoding="UTF-8" standalone="no"?>
<!-- Generator: Adobe Illustrator 16.0.0, SVG Export Plug-In . SVG Version: 6.00 Build 0)  -->

<svg
   xmlns:dc="http://purl.org/dc/elements/1.1/"
   xmlns:cc="http://creativecommons.org/ns#"
   xmlns:rdf="http://www.w3.org/1999/02/22-rdf-syntax-ns#"
   xmlns:svg="http://www.w3.org/2000/svg"
   xmlns="http://www.w3.org/2000/svg"
   xmlns:sodipodi="http://sodipodi.sourceforge.net/DTD/sodipodi-0.dtd"
   xmlns:inkscape="http://www.inkscape.org/namespaces/inkscape"
   version="1.1"
   id="Layer_1"
   x="0px"
   y="0px"
   width="202.26199"
   height="98.455002"
   viewBox="0 0 202.26198 98.455"
   enable-background="new 0 0 595.28 841.89"
   xml:space="preserve"
   inkscape:version="0.91 r13725"
   sodipodi:docname="team.svg"><metadata
     id="metadata9"><rdf:RDF><cc:Work
         rdf:about=""><dc:format>image/svg+xml</dc:format><dc:type
           rdf:resource="http://purl.org/dc/dcmitype/StillImage" /><dc:title></dc:title></cc:Work></rdf:RDF></metadata><defs
     id="defs7" /><sodipodi:namedview
     pagecolor="#ffffff"
     bordercolor="#666666"
     borderopacity="1"
     objecttolerance="10"
     gridtolerance="10"
     guidetolerance="10"
     inkscape:pageopacity="0"
     inkscape:pageshadow="2"
     inkscape:window-width="927"
     inkscape:window-height="756"
     id="namedview5"
     showgrid="false"
     fit-margin-top="0"
     fit-margin-left="0"
     fit-margin-right="0"
     fit-margin-bottom="0"
     inkscape:zoom="0.28032165"
     inkscape:cx="-347.67064"
     inkscape:cy="49.054988"
     inkscape:window-x="0"
     inkscape:window-y="0"
     inkscape:window-maximized="0"
     inkscape:current-layer="Layer_1" /><path
     d="m 149.20299,98.455 -96.144998,0 c 0,-22 16.565,-44.094 38.554,-48.511 -9.233,-3.76 -15.746,-14.543 -15.746,-25.129 0,-13.95 11.311,-24.815 25.265998,-24.815 13.956,0 25.266,11.952 25.266,25.902 0,10.584 -6.512,20.106 -15.746,23.862 21.989,4.42 38.551,26.691 38.551,48.691 z m -93.549998,-31.5 c -4.104,-3.123 -8.914,-4.781 -14.172,-5.833 6.651,-2.713 11.342,-9.008 11.342,-16.634 0,-10.048 -8.147,-18.085 -18.198,-18.085 -10.05,0 -18.197,8.206 -18.197,18.254 0,7.628 4.691,13.146 11.343,15.859 C 11.931992,63.695 -7.6293945e-6,79.455 -7.6293945e-6,93.455 L 46.957992,93.455 c 0.568,-7 3.651,-18.42 8.695,-26.5 z M 160.78099,61.708 c -5.244,1.052 -10.042,2.118 -14.138,5.226 5.025,8.084 8.097,19.521 8.663,26.521 l 46.956,0 c 0,-14 -11.929,-29.732 -27.771,-32.914 6.653,-2.709 11.343,-8.721 11.343,-16.342 0,-10.046 -8.145,-17.942 -18.195,-17.942 -10.05,0 -18.198,8.278 -18.198,18.327 0,7.629 4.689,14.413 11.34,17.124 z"
     id="path3"
     inkscape:connector-curvature="0"
     style="fill:#f79a1f" /></svg>