<?xml version="1.0" encoding="utf-8"?>
<!-- Generator: Adobe Illustrator 16.0.0, SVG Export Plug-In . SVG Version: 6.00 Build 0)  -->
<!DOCTYPE svg PUBLIC "-//W3C//DTD SVG 1.1//EN" "http://www.w3.org/Graphics/SVG/1.1/DTD/svg11.dtd">
<svg version="1.1" id="Layer_1" xmlns="http://www.w3.org/2000/svg" xmlns:xlink="http://www.w3.org/1999/xlink" x="0px" y="0px"
	 width="595.28px" height="841.89px" viewBox="0 0 595.28 841.89" enable-background="new 0 0 595.28 841.89" xml:space="preserve">
<g>
	<g>
		<path fill-rule="evenodd" clip-rule="evenodd" fill="#F79A1F" d="M231.422,388.198c0.013-6.816,1.546-11.828,3.612-16.707
			c1.408-3.323,3.099-6.488,5.352-9.335c2.424-3.076,5.576-5.064,9.315-5.95c3.144-0.747,6.371-1.174,9.579-1.628
			c1.408-0.197,2.663,0.3,3.49,1.597c1.227,1.923,2.579,3.772,3.695,5.76c2.979,5.292,5.825,10.659,8.794,15.958
			c1.037,1.854,2.369,3.542,3.403,5.396c1.539,2.761,1.438,4.726-0.78,6.978c-2.598,2.641-5.503,4.975-8.26,7.458
			c-1.751,1.58-3.509,3.155-5.207,4.792c-1.791,1.727-2.223,3.798-1.053,6.02c1.589,3.006,3.231,5.991,4.96,8.92
			c8.669,14.678,20.532,26.093,35.378,34.425c2.19,1.231,4.395,2.439,6.618,3.604c2.262,1.184,4.316,0.726,5.992-1.106
			c2.982-3.254,5.864-6.597,8.827-9.866c1.195-1.316,2.454-2.584,3.755-3.794c1.988-1.849,4.233-1.959,6.515-0.624
			c2.135,1.248,4.153,2.698,6.3,3.923c6.349,3.628,12.702,7.252,19.123,10.743c2.859,1.553,3.768,3.704,3.364,6.867
			c-0.49,3.796-1.292,7.481-2.814,10.973c-1.58,3.626-4.507,6.077-7.809,8.046c-5.359,3.193-11.083,5.486-17.288,6.464
			c-5.076,0.795-10.094,0.209-14.91-1.311c-9.519-2.999-18.914-6.361-27.642-11.329c-8.768-4.989-16.663-11.131-24.002-18.021
			c-6.028-5.654-11.613-11.71-16.655-18.26c-6.995-9.086-12.52-18.979-16.241-29.843c-1.442-4.202-3.035-8.366-4.208-12.647
			C231.837,392.815,231.658,389.761,231.422,388.198z"/>
	</g>
</g>
</svg>
