<?xml version="1.0" encoding="UTF-8" standalone="no"?>
<!-- Generator: Adobe Illustrator 16.0.0, SVG Export Plug-In . SVG Version: 6.00 Build 0)  -->

<svg
   xmlns:dc="http://purl.org/dc/elements/1.1/"
   xmlns:cc="http://creativecommons.org/ns#"
   xmlns:rdf="http://www.w3.org/1999/02/22-rdf-syntax-ns#"
   xmlns:svg="http://www.w3.org/2000/svg"
   xmlns="http://www.w3.org/2000/svg"
   xmlns:sodipodi="http://sodipodi.sourceforge.net/DTD/sodipodi-0.dtd"
   xmlns:inkscape="http://www.inkscape.org/namespaces/inkscape"
   version="1.1"
   id="Layer_1"
   x="0px"
   y="0px"
   width="132.86304"
   height="132.93037"
   viewBox="0 0 132.86303 132.93037"
   enable-background="new 0 0 595.28 841.89"
   xml:space="preserve"
   inkscape:version="0.91 r13725"
   sodipodi:docname="contact.svg"><metadata
     id="metadata13"><rdf:RDF><cc:Work
         rdf:about=""><dc:format>image/svg+xml</dc:format><dc:type
           rdf:resource="http://purl.org/dc/dcmitype/StillImage" /><dc:title></dc:title></cc:Work></rdf:RDF></metadata><defs
     id="defs11" /><sodipodi:namedview
     pagecolor="#ffffff"
     bordercolor="#666666"
     borderopacity="1"
     objecttolerance="10"
     gridtolerance="10"
     guidetolerance="10"
     inkscape:pageopacity="0"
     inkscape:pageshadow="2"
     inkscape:window-width="640"
     inkscape:window-height="480"
     id="namedview9"
     showgrid="false"
     fit-margin-top="0"
     fit-margin-left="0"
     fit-margin-right="0"
     fit-margin-bottom="0"
     inkscape:zoom="0.28032165"
     inkscape:cx="-109.26803"
     inkscape:cy="66.521718"
     inkscape:window-x="106"
     inkscape:window-y="186"
     inkscape:window-maximized="0"
     inkscape:current-layer="Layer_1" /><g
     id="g3"
     transform="translate(-231.422,-354.53636)"><g
       id="g5"><path
         d="m 231.422,388.198 c 0.013,-6.816 1.546,-11.828 3.612,-16.707 1.408,-3.323 3.099,-6.488 5.352,-9.335 2.424,-3.076 5.576,-5.064 9.315,-5.95 3.144,-0.747 6.371,-1.174 9.579,-1.628 1.408,-0.197 2.663,0.3 3.49,1.597 1.227,1.923 2.579,3.772 3.695,5.76 2.979,5.292 5.825,10.659 8.794,15.958 1.037,1.854 2.369,3.542 3.403,5.396 1.539,2.761 1.438,4.726 -0.78,6.978 -2.598,2.641 -5.503,4.975 -8.26,7.458 -1.751,1.58 -3.509,3.155 -5.207,4.792 -1.791,1.727 -2.223,3.798 -1.053,6.02 1.589,3.006 3.231,5.991 4.96,8.92 8.669,14.678 20.532,26.093 35.378,34.425 2.19,1.231 4.395,2.439 6.618,3.604 2.262,1.184 4.316,0.726 5.992,-1.106 2.982,-3.254 5.864,-6.597 8.827,-9.866 1.195,-1.316 2.454,-2.584 3.755,-3.794 1.988,-1.849 4.233,-1.959 6.515,-0.624 2.135,1.248 4.153,2.698 6.3,3.923 6.349,3.628 12.702,7.252 19.123,10.743 2.859,1.553 3.768,3.704 3.364,6.867 -0.49,3.796 -1.292,7.481 -2.814,10.973 -1.58,3.626 -4.507,6.077 -7.809,8.046 -5.359,3.193 -11.083,5.486 -17.288,6.464 -5.076,0.795 -10.094,0.209 -14.91,-1.311 -9.519,-2.999 -18.914,-6.361 -27.642,-11.329 -8.768,-4.989 -16.663,-11.131 -24.002,-18.021 -6.028,-5.654 -11.613,-11.71 -16.655,-18.26 -6.995,-9.086 -12.52,-18.979 -16.241,-29.843 -1.442,-4.202 -3.035,-8.366 -4.208,-12.647 -0.788,-2.886 -0.967,-5.94 -1.203,-7.503 z"
         id="path7"
         inkscape:connector-curvature="0"
         style="clip-rule:evenodd;fill:#f79a1f;fill-rule:evenodd" /></g></g></svg>