<?xml version="1.0" encoding="utf-8"?>
<!-- Generator: Adobe Illustrator 16.0.0, SVG Export Plug-In . SVG Version: 6.00 Build 0)  -->
<!DOCTYPE svg PUBLIC "-//W3C//DTD SVG 1.1//EN" "http://www.w3.org/Graphics/SVG/1.1/DTD/svg11.dtd">
<svg version="1.1" id="Layer_1" xmlns="http://www.w3.org/2000/svg" xmlns:xlink="http://www.w3.org/1999/xlink" x="0px" y="0px"
	 width="595.28px" height="841.89px" viewBox="0 0 595.28 841.89" enable-background="new 0 0 595.28 841.89" xml:space="preserve">
<g>
	<g>
		<g>
			<g>
				<circle fill="#FFFFFF" cx="299.9" cy="396.708" r="64.847"/>
			</g>
			<linearGradient id="SVGID_1_" gradientUnits="userSpaceOnUse" x1="220.0479" y1="389.2593" x2="374.7861" y2="389.2593">
				<stop  offset="0" style="stop-color:#FBB040"/>
				<stop  offset="1" style="stop-color:#F07022"/>
			</linearGradient>
			<polygon fill="url(#SVGID_1_)" points="220.048,461.638 269.966,373.744 295.729,385.902 312.014,356.652 294.326,346.844 
				358.639,316.881 374.786,385.975 354.926,376.595 324.114,429.568 281.936,411.779 			"/>
			<polygon fill="#FFFFFF" points="310.564,346.885 323.688,353.073 308.884,380.613 337.806,359.739 341.739,381.581 
				351.432,366.168 363.068,371.666 353,327.546 			"/>
		</g>
	</g>
	<g>
		<path fill="#FFFFFF" d="M236.901,502.604v-18.633h3.626v9.094l8.068-9.12h3.758l-7.148,8.279l7.596,10.38h-3.836l-5.941-8.33
			l-2.496,2.705v5.625H236.901z"/>
		<path fill="#FFFFFF" d="M257.059,502.604v-18.633h3.627v18.633H257.059z"/>
		<path fill="#FFFFFF" d="M281.159,487.127h-5.94v15.477h-3.626v-15.477h-5.967v-3.183h15.533V487.127z"/>
		<path fill="#FFFFFF" d="M297.086,488.832c-0.123-0.123-0.348-0.287-0.672-0.499c-0.323-0.209-0.717-0.417-1.182-0.619
			c-0.465-0.199-0.968-0.37-1.511-0.513c-0.544-0.138-1.095-0.21-1.655-0.21c-1,0-1.745,0.186-2.235,0.552
			c-0.49,0.369-0.734,0.887-0.734,1.554c0,0.383,0.091,0.706,0.274,0.956c0.185,0.256,0.451,0.479,0.803,0.673
			c0.35,0.192,0.792,0.366,1.326,0.524c0.535,0.159,1.153,0.325,1.854,0.499c0.911,0.246,1.737,0.509,2.482,0.788
			c0.746,0.281,1.376,0.631,1.895,1.053c0.516,0.421,0.914,0.925,1.195,1.51c0.279,0.588,0.42,1.311,0.42,2.168
			c0,1-0.188,1.855-0.565,2.563c-0.376,0.71-0.88,1.283-1.512,1.722c-0.63,0.437-1.366,0.757-2.206,0.959
			c-0.842,0.202-1.718,0.304-2.629,0.304c-1.402,0-2.785-0.212-4.152-0.631c-1.367-0.422-2.594-1.017-3.68-1.788l1.604-3.129
			c0.158,0.159,0.443,0.364,0.854,0.617c0.412,0.255,0.897,0.51,1.46,0.764c0.56,0.255,1.182,0.469,1.866,0.643
			c0.682,0.176,1.383,0.266,2.102,0.266c1.998,0,2.996-0.642,2.996-1.918c0-0.422-0.114-0.773-0.341-1.053
			c-0.229-0.279-0.553-0.525-0.974-0.737c-0.421-0.209-0.928-0.402-1.523-0.578c-0.598-0.176-1.262-0.358-1.998-0.549
			c-0.894-0.248-1.669-0.516-2.326-0.802c-0.656-0.289-1.205-0.627-1.643-1.015c-0.438-0.386-0.768-0.841-0.986-1.366
			c-0.218-0.527-0.327-1.146-0.327-1.866c0-0.944,0.175-1.788,0.526-2.522c0.35-0.734,0.836-1.349,1.459-1.84
			c0.621-0.489,1.344-0.865,2.166-1.115c0.825-0.256,1.709-0.384,2.656-0.384c1.312,0,2.523,0.207,3.625,0.617
			c1.104,0.414,2.068,0.898,2.892,1.46L297.086,488.832z"/>
		<path fill="#FFFFFF" d="M312.592,499.529c0.858,0,1.58-0.176,2.168-0.524c0.586-0.353,1.06-0.808,1.418-1.366
			c0.359-0.563,0.615-1.207,0.763-1.935c0.148-0.725,0.224-1.477,0.224-2.245v-9.515h3.601v9.515c0,1.279-0.154,2.477-0.46,3.6
			c-0.307,1.122-0.788,2.103-1.445,2.943c-0.658,0.843-1.504,1.508-2.537,1.999c-1.033,0.489-2.269,0.735-3.705,0.735
			c-1.489,0-2.755-0.258-3.797-0.776c-1.045-0.518-1.89-1.199-2.537-2.05c-0.648-0.848-1.115-1.836-1.406-2.955
			c-0.287-1.123-0.432-2.289-0.432-3.496v-9.515h3.626v9.515c0,0.785,0.075,1.547,0.223,2.271c0.147,0.728,0.403,1.373,0.763,1.933
			c0.358,0.561,0.828,1.012,1.406,1.354S311.75,499.529,312.592,499.529z"/>
		<path fill="#FFFFFF" d="M330.646,490.646v11.958h-3.627v-18.659h2.812l9.725,12.247v-12.221h3.626v18.633h-2.943L330.646,490.646z
			"/>
		<path fill="#FFFFFF" d="M362.657,499.424v3.18h-12.956v-18.659h12.719v3.183h-9.094v4.492h7.857v2.943h-7.857v4.861H362.657z"/>
		<path fill="#FFFFFF" d="M236.992,529.055l6.197-14.568h0.863l6.197,14.568h-1.13l-2.03-4.801h-6.957l-2.033,4.801H236.992z
			 M243.621,515.758l-3.242,7.637h6.423L243.621,515.758z"/>
		<path fill="#FFFFFF" d="M255.625,516.457v12.598h-1.045v-14.568h0.8l10.221,12.827v-12.808h1.048v14.549h-0.965L255.625,516.457z"
			/>
		<path fill="#FFFFFF" d="M270.999,529.055l6.198-14.568h0.861l6.197,14.568h-1.129l-2.031-4.801h-6.957l-2.033,4.801H270.999z
			 M277.627,515.758l-3.241,7.637h6.423L277.627,515.758z"/>
		<path fill="#FFFFFF" d="M288.586,529.055v-14.568h1.048v13.629h8.7v0.939H288.586z"/>
		<path fill="#FFFFFF" d="M299.73,514.486l5.09,8.064l5.131-8.064h1.148l-5.746,9.071v5.497h-1.047v-5.54l-5.725-9.028H299.73z"/>
		<path fill="#FFFFFF" d="M325.508,515.431h-5.336v13.624h-1.047v-13.624h-5.336v-0.944h11.719V515.431z"/>
		<path fill="#FFFFFF" d="M329.921,529.055v-14.549h1.046v14.549H329.921z"/>
		<path fill="#FFFFFF" d="M335.912,521.667c0-0.872,0.156-1.744,0.462-2.616c0.309-0.867,0.755-1.643,1.347-2.329
			c0.586-0.685,1.309-1.24,2.163-1.672c0.854-0.431,1.829-0.646,2.925-0.646c1.301,0,2.408,0.297,3.324,0.892
			c0.918,0.593,1.594,1.356,2.033,2.29l-0.861,0.492c-0.248-0.509-0.545-0.93-0.895-1.274c-0.349-0.34-0.727-0.617-1.128-0.831
			c-0.405-0.212-0.824-0.366-1.263-0.463c-0.438-0.094-0.868-0.14-1.293-0.14c-0.932,0-1.752,0.188-2.463,0.563
			c-0.711,0.376-1.313,0.865-1.807,1.465c-0.492,0.603-0.865,1.284-1.117,2.043c-0.254,0.759-0.381,1.522-0.381,2.288
			c0,0.865,0.15,1.684,0.452,2.465c0.3,0.775,0.712,1.467,1.231,2.062s1.137,1.072,1.848,1.426c0.711,0.356,1.477,0.533,2.297,0.533
			c0.438,0,0.886-0.056,1.346-0.162c0.458-0.11,0.902-0.281,1.332-0.516c0.433-0.23,0.832-0.529,1.202-0.894
			c0.37-0.361,0.677-0.79,0.923-1.281l0.884,0.431c-0.248,0.55-0.579,1.034-0.996,1.458c-0.418,0.424-0.886,0.78-1.407,1.067
			c-0.519,0.286-1.068,0.501-1.65,0.646s-1.152,0.217-1.713,0.217c-1,0-1.912-0.22-2.741-0.658
			c-0.827-0.438-1.543-1.007-2.144-1.713c-0.603-0.705-1.071-1.505-1.407-2.401C336.08,523.512,335.912,522.6,335.912,521.667z"/>
		<path fill="#FFFFFF" d="M361.588,516.907c-0.945-1.053-2.279-1.58-4.002-1.58c-1.424,0-2.461,0.27-3.109,0.81
			c-0.65,0.539-0.976,1.271-0.976,2.187c0,0.465,0.083,0.853,0.245,1.171c0.166,0.311,0.422,0.576,0.771,0.79
			c0.35,0.21,0.794,0.396,1.334,0.554c0.54,0.157,1.18,0.309,1.919,0.461c0.793,0.166,1.505,0.347,2.134,0.544
			c0.629,0.2,1.166,0.448,1.611,0.752c0.444,0.299,0.787,0.667,1.025,1.105c0.24,0.438,0.359,0.978,0.359,1.621
			c0,0.646-0.127,1.204-0.378,1.682c-0.255,0.481-0.61,0.879-1.067,1.204c-0.46,0.318-1.007,0.563-1.643,0.728
			c-0.637,0.164-1.346,0.246-2.125,0.246c-2.271,0-4.192-0.726-5.767-2.178l0.554-0.839c0.615,0.641,1.369,1.151,2.259,1.527
			c0.889,0.376,1.888,0.566,2.997,0.566c1.27,0,2.266-0.233,2.985-0.701c0.718-0.463,1.077-1.168,1.077-2.11
			c0-0.481-0.094-0.886-0.277-1.224c-0.185-0.335-0.469-0.624-0.852-0.872s-0.859-0.457-1.426-0.636
			c-0.568-0.178-1.236-0.35-2.002-0.513c-0.781-0.164-1.467-0.338-2.063-0.521c-0.594-0.188-1.097-0.419-1.507-0.701
			c-0.412-0.281-0.719-0.619-0.924-1.014c-0.206-0.397-0.309-0.898-0.309-1.499c0-0.657,0.128-1.237,0.381-1.746
			c0.252-0.506,0.604-0.933,1.057-1.284c0.45-0.347,0.99-0.606,1.621-0.787c0.63-0.176,1.326-0.266,2.094-0.266
			c0.943,0,1.785,0.138,2.522,0.42c0.739,0.279,1.411,0.705,2.012,1.283L361.588,516.907z"/>
	</g>
</g>
</svg>
