<?xml version="1.0" encoding="utf-8"?>
<!-- Generator: Adobe Illustrator 16.0.0, SVG Export Plug-In . SVG Version: 6.00 Build 0)  -->
<!DOCTYPE svg PUBLIC "-//W3C//DTD SVG 1.1//EN" "http://www.w3.org/Graphics/SVG/1.1/DTD/svg11.dtd">
<svg version="1.1" id="Layer_1" xmlns="http://www.w3.org/2000/svg" xmlns:xlink="http://www.w3.org/1999/xlink" x="0px" y="0px"
	 width="595.28px" height="841.89px" viewBox="0 0 595.28 841.89" enable-background="new 0 0 595.28 841.89" xml:space="preserve">
<path fill="#F79A1F" d="M345.03,470h-96.145c0-22,16.565-44.094,38.554-48.511c-9.233-3.76-15.746-14.543-15.746-25.129
	c0-13.95,11.311-24.815,25.266-24.815c13.956,0,25.266,11.952,25.266,25.902c0,10.584-6.512,20.106-15.746,23.862
	C328.468,425.729,345.03,448,345.03,470z M251.48,438.5c-4.104-3.123-8.914-4.781-14.172-5.833
	c6.651-2.713,11.342-9.008,11.342-16.634c0-10.048-8.147-18.085-18.198-18.085c-10.05,0-18.197,8.206-18.197,18.254
	c0,7.628,4.691,13.146,11.343,15.859C207.759,435.24,195.827,451,195.827,465h46.958C243.353,458,246.436,446.58,251.48,438.5z
	 M356.608,433.253c-5.244,1.052-10.042,2.118-14.138,5.226c5.025,8.084,8.097,19.521,8.663,26.521h46.956
	c0-14-11.929-29.732-27.771-32.914c6.653-2.709,11.343-8.721,11.343-16.342c0-10.046-8.145-17.942-18.195-17.942
	s-18.198,8.278-18.198,18.327C345.268,423.758,349.957,430.542,356.608,433.253z"/>
</svg>
